<svg width="280" height="319" viewBox="0 0 280 319" fill="none" xmlns="http://www.w3.org/2000/svg">
<path d="M120.281 0H0.116211C42.8288 5.48084 84.9719 31.675 84.9719 81.1448C84.9719 110.969 67.5309 151.755 10.652 159.443L35.9236 160.297C94.1551 162.646 125.762 195.887 125.762 236.886C125.762 286 84.9719 313.974 45.5339 318.529H168.902C238.595 318.529 279.884 275.394 279.884 222.223C279.884 175.458 242.724 139.227 194.459 134.672C201.902 127.498 207.78 118.863 211.725 109.308C215.67 99.7536 217.596 89.4864 217.381 79.1518C217.523 35.5898 182.57 0 120.281 0Z" fill="#E90013"/>
</svg>
