<svg width="181" height="85" viewBox="0 0 181 85" fill="none" xmlns="http://www.w3.org/2000/svg">
<path d="M5.39122 74.1862V67.9463H9.68233C11.6318 67.9463 13.3309 68.9699 13.3309 71.0717C13.3309 73.1734 11.6318 74.1862 9.68233 74.1862H5.39122ZM0.207031 56C1.43773 56.6425 1.75357 57.6008 1.75357 59.1145V75.4494C1.72042 75.721 1.74934 75.9965 1.83815 76.2553C1.92697 76.5141 2.07337 76.7493 2.26632 76.9433C2.45927 77.1372 2.69373 77.2849 2.95204 77.3751C3.21036 77.4653 3.48577 77.4957 3.75755 77.4641H10.1833C14.1913 77.4641 17.2517 75.2861 17.2517 71.2895C17.2997 69.9918 16.8709 68.7214 16.0462 67.7182C15.2215 66.715 14.058 66.0485 12.7754 65.8445C13.5928 65.4698 14.2823 64.8636 14.7585 64.1009C15.2348 63.3383 15.4768 62.4527 15.4546 61.5539C15.4546 58.2215 12.7972 56 8.65856 56H0.207031ZM11.7517 62.0439C11.7517 63.8299 10.4556 64.8535 8.38629 64.8535H5.39122V59.2452H8.38629C10.4556 59.2452 11.7517 60.258 11.7517 62.0439Z" fill="black"/>
<path d="M35.4725 77.4313H39.0557V61.4014H35.4725V77.4313ZM24.4179 74.3713V69.5797H26.9774C27.3191 69.5335 27.6668 69.561 27.9971 69.6602C28.3274 69.7595 28.6326 69.9282 28.8923 70.1551C29.1519 70.382 29.3601 70.6619 29.5026 70.9759C29.6452 71.2898 29.719 71.6307 29.719 71.9755C29.719 72.3203 29.6452 72.6612 29.5026 72.9751C29.3601 73.2891 29.1519 73.5689 28.8923 73.7958C28.6326 74.0228 28.3274 74.1915 27.9971 74.2908C27.6668 74.39 27.3191 74.4175 26.9774 74.3713H24.4179ZM27.5328 66.6503H24.4179V61.4014H19.7239C20.6169 61.8914 20.813 63.1002 20.813 64.3961V75.4167C20.7798 75.6883 20.8087 75.9638 20.8976 76.2226C20.9864 76.4814 21.1328 76.7166 21.3257 76.9106C21.5187 77.1045 21.7531 77.2522 22.0114 77.3424C22.2698 77.4326 22.5452 77.463 22.8169 77.4313H27.511C30.7239 77.4313 33.2942 75.5147 33.2942 71.9864C33.2942 68.458 30.7021 66.6503 27.5328 66.6503Z" fill="black"/>
<path d="M46.8102 74.3386C47.6349 71.9683 48.1225 69.4939 48.2587 66.9879L48.5092 64.4941H53.6607V74.295L46.8102 74.3386ZM59.7162 74.3386H57.2112V61.4014H44.3052C44.7231 61.7591 45.036 62.2236 45.2106 62.7453C45.3851 63.267 45.4148 63.8262 45.2963 64.3634L45.1438 66.0949C45.0175 68.9104 44.463 71.6902 43.4993 74.3386H41.8329V79.3371C41.7998 79.6086 41.8287 79.8842 41.9175 80.143C42.0063 80.4017 42.1527 80.637 42.3457 80.8309C42.5386 81.0249 42.7731 81.1726 43.0314 81.2628C43.2897 81.353 43.5651 81.3834 43.8369 81.3517H44.6428L45.231 77.4313H55.9805V79.3371C55.9474 79.6086 55.9763 79.8842 56.0651 80.143C56.1539 80.4017 56.3003 80.637 56.4933 80.8309C56.6862 81.0249 56.9207 81.1726 57.179 81.2628C57.4373 81.353 57.7127 81.3834 57.9845 81.3517H58.7905L59.7162 74.3386Z" fill="black"/>
<path d="M70.1825 78.6619L77.0984 61.4014H72.2518C72.8726 61.8914 72.84 63.1002 72.4043 64.211L69.137 72.6724L64.7805 61.4014H60.8597L67.133 77.0284L66.8172 77.8016C66.229 79.3371 65.0637 80.9161 63.6696 80.9161C63.4488 80.933 63.2269 80.9029 63.0185 80.8278C62.8101 80.7527 62.62 80.6344 62.4607 80.4805L63.1468 84.096C63.4551 84.1994 63.781 84.2401 64.1053 84.2158C67.2201 84.2158 68.9191 81.8418 70.1825 78.6619Z" fill="black"/>
<path d="M83.4045 61.4013H79.4836C79.9384 61.7417 80.2887 62.2027 80.4947 62.732C80.7007 63.2614 80.7541 63.8379 80.649 64.396L79.6361 77.464H82.9035L83.7965 65.8444L88.3381 74.2841H90.5164L94.9926 65.6375L95.7006 77.464H99.3164L98.358 61.434H95.6897C95.1943 61.4094 94.703 61.5344 94.2795 61.7927C93.8561 62.051 93.5202 62.4306 93.3154 62.8823L89.6342 69.7757L85.7461 62.8497C85.5482 62.3997 85.2185 62.0203 84.8004 61.7617C84.3823 61.503 83.8955 61.3774 83.4045 61.4013Z" fill="black"/>
<path d="M127.318 74.3386H124.845V61.4014H121.262V74.3386H115.915V61.4014H112.386V74.3386H107.06V61.4014H102.366C103.259 61.8914 103.455 63.1002 103.455 64.3961V75.4167C103.422 75.6883 103.451 75.9638 103.54 76.2226C103.628 76.4814 103.775 76.7166 103.968 76.9106C104.161 77.1045 104.395 77.2522 104.654 77.3424C104.912 77.4326 105.187 77.463 105.459 77.4313H123.527V79.3371C123.494 79.6086 123.523 79.8842 123.612 80.143C123.701 80.4017 123.847 80.637 124.04 80.8309C124.233 81.0249 124.468 81.1726 124.726 81.2628C124.984 81.353 125.26 81.3834 125.531 81.3517H126.37L127.318 74.3386Z" fill="black"/>
<path d="M133.918 61.4011H129.223C130.127 61.8912 130.313 63.0999 130.313 64.3958V77.4638H131.641C132.125 77.4823 132.606 77.3759 133.037 77.1546C133.469 76.9333 133.835 76.6048 134.103 76.2005L141.334 67.0312V77.4093H144.918V61.4011H143.589C143.113 61.3804 142.64 61.4803 142.214 61.6917C141.787 61.9031 141.421 62.2189 141.149 62.6099L133.918 71.7792V61.4011Z" fill="black"/>
<path d="M162.42 77.5511C162.683 77.5582 162.945 77.5176 163.193 77.4313L163.966 73.9683C163.724 74.1658 163.418 74.2667 163.106 74.2515C161.712 74.2515 160.198 73.3476 157.944 70.4509L156.528 68.6323L162.855 61.4014H158.869L153.01 67.9353V61.4014H148.327C149.22 61.8914 149.416 63.1002 149.416 64.3961V77.464H152.999V69.8411L155.46 73.108C157.726 75.9503 159.555 77.5511 162.42 77.5511Z" fill="black"/>
<path d="M170.109 61.4016H165.415C166.308 61.8917 166.504 63.1004 166.504 64.3963V77.4643H167.833C168.307 77.4715 168.776 77.3596 169.197 77.139C169.617 76.9183 169.976 76.5958 170.24 76.201L177.46 67.0317V77.4098H181V61.4016H179.671C179.196 61.3829 178.724 61.4838 178.297 61.6949C177.871 61.9061 177.505 62.2209 177.232 62.6104L170.109 71.7797V61.4016Z" fill="black"/>
<path d="M86.3846 0H70.1117C75.8959 0.747773 81.603 4.32154 81.603 11.0709C81.603 15.14 79.2411 20.7046 71.5384 21.7534L74.9608 21.8699C82.8466 22.1904 87.1269 26.7256 87.1269 32.3193C87.1269 39.0201 81.603 42.8367 76.2622 43.4582H92.969C102.407 43.4582 107.998 37.5732 107.998 30.3188C107.998 23.9384 102.966 18.9954 96.4299 18.3738C97.4378 17.3951 98.2339 16.2169 98.7682 14.9134C99.3024 13.6098 99.5631 12.209 99.5341 10.799C99.5534 4.85567 94.8199 0 86.3846 0Z" fill="#E90013"/>
</svg>
