<svg width="241" height="39" viewBox="0 0 241 39" fill="none" xmlns="http://www.w3.org/2000/svg">
<path d="M14.6036 0H0C5.19084 0.671061 10.3125 3.87821 10.3125 9.93519C10.3125 13.5868 8.19287 18.5806 1.28041 19.5218L4.35166 19.6264C11.4285 19.914 15.2697 23.9839 15.2697 29.0038C15.2697 35.0172 10.3125 38.4422 5.51959 39H20.5125C28.9822 39 34 33.7187 34 27.2085C34 21.4827 29.484 17.0467 23.6183 16.4889C24.5229 15.6106 25.2373 14.5533 25.7167 13.3835C26.1961 12.2136 26.4302 10.9565 26.4041 9.69117C26.4214 4.35754 22.1735 0 14.6036 0Z" fill="#E90013"/>
<path d="M58.3681 27.6649V21.2036H62.8115C64.8301 21.2036 66.5894 22.2635 66.5894 24.4399C66.5894 26.6162 64.8301 27.6649 62.8115 27.6649H58.3681ZM53 8.8335C54.2744 9.4988 54.6014 10.4911 54.6014 12.0585V28.9729C54.5671 29.2541 54.597 29.5394 54.689 29.8074C54.781 30.0753 54.9326 30.3189 55.1323 30.5198C55.3321 30.7206 55.5749 30.8735 55.8424 30.9669C56.1099 31.0603 56.3951 31.0918 56.6765 31.059H63.3302C67.4804 31.059 70.6493 28.8038 70.6493 24.6654C70.6991 23.3216 70.2551 22.0062 69.4011 20.9674C68.5472 19.9287 67.3424 19.2385 66.0143 19.0272C66.8607 18.6392 67.5746 18.0115 68.0678 17.2218C68.5609 16.4321 68.8115 15.5151 68.7886 14.5844C68.7886 11.1339 66.0368 8.8335 61.7514 8.8335H53ZM64.9542 15.0918C64.9542 16.9411 63.6122 18.0011 61.4694 18.0011H58.3681V12.1938H61.4694C63.6122 12.1938 64.9542 13.2425 64.9542 15.0918Z" fill="black"/>
<path d="M89.5165 31.0252H93.2269V14.4265H89.5165V31.0252ZM78.0698 27.8566V22.895H80.7201C81.074 22.8472 81.434 22.8756 81.776 22.9784C82.118 23.0811 82.434 23.2559 82.7029 23.4908C82.9718 23.7258 83.1873 24.0156 83.3349 24.3407C83.4826 24.6658 83.559 25.0187 83.559 25.3758C83.559 25.7328 83.4826 26.0858 83.3349 26.4109C83.1873 26.736 82.9718 27.0257 82.7029 27.2607C82.434 27.4957 82.118 27.6704 81.776 27.7732C81.434 27.876 81.074 27.9044 80.7201 27.8566H78.0698ZM81.2952 19.8617H78.0698V14.4265H73.2092C74.134 14.9339 74.337 16.1856 74.337 17.5275V28.9391C74.3026 29.2203 74.3326 29.5056 74.4246 29.7736C74.5165 30.0415 74.6681 30.2851 74.8679 30.4859C75.0677 30.6868 75.3105 30.8397 75.578 30.9331C75.8454 31.0265 76.1306 31.058 76.412 31.0252H81.2727C84.5995 31.0252 87.261 29.0406 87.261 25.387C87.261 21.7335 84.577 19.8617 81.2952 19.8617Z" fill="black"/>
<path d="M101.256 27.8227C102.11 25.3683 102.615 22.8061 102.756 20.2112L103.016 17.629H108.35V27.7776L101.256 27.8227ZM114.62 27.8227H112.027V14.4265H98.6627C99.0954 14.797 99.4194 15.278 99.6001 15.8181C99.7809 16.3583 99.8116 16.9374 99.6889 17.4937L99.531 19.2866C99.4002 22.2019 98.826 25.0803 97.8281 27.8227H96.1027V32.9985C96.0683 33.2797 96.0983 33.5651 96.1902 33.833C96.2822 34.101 96.4338 34.3445 96.6336 34.5454C96.8334 34.7462 97.0762 34.8991 97.3437 34.9926C97.6111 35.086 97.8963 35.1175 98.1777 35.0846H99.0123L99.6213 31.0252H110.752V32.9985C110.718 33.2797 110.748 33.5651 110.84 33.833C110.932 34.101 111.083 34.3445 111.283 34.5454C111.483 34.7462 111.726 34.8991 111.993 34.9926C112.261 35.086 112.546 35.1175 112.827 35.0846H113.662L114.62 27.8227Z" fill="black"/>
<path d="M125.458 32.2994L132.619 14.4265H127.601C128.244 14.9339 128.21 16.1856 127.759 17.3358L124.375 26.0975L119.864 14.4265H115.804L122.3 30.608L121.973 31.4086C121.364 32.9985 120.158 34.6336 118.714 34.6336C118.485 34.6511 118.256 34.6199 118.04 34.5421C117.824 34.4644 117.627 34.3418 117.462 34.1825L118.173 37.9263C118.492 38.0333 118.829 38.0755 119.165 38.0503C122.391 38.0503 124.15 35.5921 125.458 32.2994Z" fill="black"/>
<path d="M139.149 14.4266H135.089C135.56 14.779 135.923 15.2564 136.136 15.8045C136.349 16.3526 136.405 16.9495 136.296 17.5275L135.247 31.0591H138.63L139.555 19.0273L144.258 27.7664H146.513L151.148 18.813L151.881 31.0591H155.626L154.633 14.4604H151.87C151.357 14.4349 150.848 14.5644 150.41 14.8318C149.971 15.0993 149.624 15.4924 149.412 15.9601L145.6 23.098L141.574 15.9263C141.369 15.4603 141.027 15.0675 140.594 14.7997C140.162 14.5319 139.657 14.4018 139.149 14.4266Z" fill="black"/>
<path d="M184.62 27.8227H182.06V14.4265H178.35V27.8227H172.812V14.4265H169.159V27.8227H163.644V14.4265H158.783C159.708 14.9339 159.911 16.1856 159.911 17.5275V28.9391C159.877 29.2203 159.907 29.5056 159.999 29.7736C160.091 30.0415 160.242 30.2851 160.442 30.4859C160.642 30.6868 160.884 30.8397 161.152 30.9331C161.419 31.0265 161.705 31.058 161.986 31.0252H180.695V32.9985C180.661 33.2797 180.691 33.5651 180.783 33.833C180.875 34.101 181.027 34.3445 181.226 34.5454C181.426 34.7462 181.669 34.8991 181.936 34.9926C182.204 35.086 182.489 35.1175 182.771 35.0846H183.639L184.62 27.8227Z" fill="black"/>
<path d="M191.454 14.4265H186.594C187.53 14.9339 187.721 16.1856 187.721 17.5275V31.059H189.097C189.599 31.0782 190.096 30.968 190.543 30.7389C190.989 30.5097 191.369 30.1695 191.646 29.7509L199.134 20.2563V31.0026H202.844V14.4265H201.469C200.976 14.405 200.486 14.5085 200.044 14.7274C199.603 14.9462 199.224 15.2733 198.942 15.6781L191.454 25.1728V14.4265Z" fill="black"/>
<path d="M220.968 31.1492C221.24 31.1565 221.511 31.1145 221.768 31.0252L222.569 27.4393C222.319 27.6438 222.001 27.7483 221.678 27.7325C220.235 27.7325 218.667 26.7966 216.333 23.7971L214.866 21.914L221.419 14.4265H217.291L211.224 21.1923V14.4265H206.375C207.299 14.9339 207.502 16.1856 207.502 17.5275V31.059H211.213V23.1656L213.761 26.5485C216.107 29.4916 218.002 31.1492 220.968 31.1492Z" fill="black"/>
<path d="M228.929 14.4265H224.069C224.994 14.9339 225.197 16.1856 225.197 17.5274V31.059H226.572C227.064 31.0664 227.55 30.9506 227.985 30.7222C228.42 30.4937 228.792 30.1598 229.065 29.7509L236.542 20.2563V31.0026H240.207V14.4265H238.831C238.339 14.4071 237.85 14.5115 237.408 14.7302C236.967 14.9489 236.588 15.2748 236.305 15.6781L228.929 25.1728V14.4265Z" fill="black"/>
</svg>
