<?xml version="1.0" encoding="utf-8"?><svg xmlns="http://www.w3.org/2000/svg" xmlns:xlink="http://www.w3.org/1999/xlink"><symbol fill="none" viewBox="0 0 51 42" id="developer" xmlns="http://www.w3.org/2000/svg"><path d="M42.034 1.948L5.54 10.161A7.099 7.099 0 000 17.087V34.41a7.098 7.098 0 007.099 7.098h36.494a7.098 7.098 0 007.098-7.098V8.874c0-4.55-4.219-7.925-8.657-6.926z" fill="url(#aa)"/><path d="M18.729 29.899v-1.842h4.51c.643 0 1.194-.11 1.653-.327a2.58 2.58 0 001.085-.947c.252-.414.379-.896.379-1.446 0-.551-.127-1.028-.38-1.43a2.47 2.47 0 00-1.084-.929c-.459-.23-1.01-.344-1.652-.344h-4.494v-1.842h4.597c1.079 0 2.014.195 2.806.585.792.379 1.406.907 1.842 1.584.448.677.672 1.469.672 2.376 0 .906-.224 1.704-.672 2.393-.436.677-1.05 1.21-1.842 1.6-.792.38-1.727.569-2.806.569h-4.614zm-4.993 0c-1.067 0-2.002-.19-2.806-.568-.792-.39-1.412-.924-1.86-1.601-.435-.69-.653-1.487-.653-2.393 0-.907.218-1.7.654-2.376.447-.677 1.067-1.205 1.86-1.584.803-.39 1.738-.585 2.805-.585h4.58v1.842h-4.494c-.63 0-1.182.114-1.652.344-.46.218-.815.528-1.068.93-.252.401-.378.878-.378 1.429 0 .55.126 1.032.378 1.446.253.401.609.717 1.068.947.47.218 1.021.327 1.652.327h4.511v1.842h-4.597zm3.667 2.548V18.915h2.273v13.532h-2.273zM31.807 19.225h9.435v1.842h-8.694l.947-.602-.724 5.44-.671.017c.264-.402.62-.78 1.067-1.136a5.623 5.623 0 011.653-.861c.654-.23 1.389-.344 2.204-.344 1.124 0 2.077.195 2.858.585.78.379 1.371.895 1.773 1.55.413.653.62 1.394.62 2.22 0 .861-.241 1.624-.724 2.29-.482.666-1.164 1.194-2.048 1.584-.872.378-1.911.568-3.116.568s-2.25-.178-3.133-.534c-.884-.356-1.584-.838-2.1-1.446a4.225 4.225 0 01-.93-2.066h2.29c.16.677.573 1.211 1.239 1.601.665.39 1.543.586 2.634.586.734 0 1.365-.104 1.894-.31.539-.218.958-.517 1.256-.895.299-.39.448-.85.448-1.378 0-.516-.126-.964-.379-1.343-.24-.39-.614-.688-1.119-.895-.493-.218-1.125-.327-1.894-.327-.63 0-1.199.075-1.704.224-.494.149-.924.338-1.291.568-.356.23-.654.47-.895.723h-1.894l.998-7.661z" fill="#fff"/><defs><linearGradient id="aa" x1="-4.017" y1="26.493" x2="38.042" y2=".4" gradientUnits="userSpaceOnUse"><stop stop-color="#5A199B"/><stop offset="1" stop-color="#CB2668"/><stop offset="1" stop-color="#E11E55"/></linearGradient></defs></symbol><symbol fill="none" viewBox="0 0 241 39" id="logo" xmlns="http://www.w3.org/2000/svg"><path d="M14.604 0H0c5.19.671 10.313 3.878 10.313 9.935 0 3.652-2.12 8.646-9.033 9.587l3.072.104c7.076.288 10.918 4.358 10.918 9.378 0 6.013-4.957 9.438-9.75 9.996h14.992C28.983 39 34 33.719 34 27.209c0-5.726-4.516-10.162-10.382-10.72a9.18 9.18 0 002.099-3.106c.48-1.17.713-2.426.687-3.692C26.421 4.358 22.174 0 14.604 0z" fill="#E90013"/><path d="M58.368 27.665v-6.461h4.444c2.018 0 3.777 1.06 3.777 3.236s-1.759 3.225-3.777 3.225h-4.444zM53 8.834c1.274.665 1.601 1.657 1.601 3.225v16.914a1.872 1.872 0 002.075 2.086h6.654c4.15 0 7.32-2.255 7.32-6.394a5.502 5.502 0 00-4.636-5.638 4.76 4.76 0 002.775-4.443c0-3.45-2.752-5.75-7.038-5.75H53zm11.954 6.258c0 1.85-1.342 2.91-3.485 2.91h-3.1v-5.808h3.1c2.143 0 3.485 1.048 3.485 2.898zM89.516 31.025h3.71V14.427h-3.71v16.598zM78.07 27.857v-4.962h2.65a2.504 2.504 0 110 4.962h-2.65zm3.225-7.995H78.07v-5.435h-4.86c.924.507 1.127 1.759 1.127 3.1V28.94a1.87 1.87 0 002.075 2.086h4.86c3.328 0 5.989-1.984 5.989-5.638s-2.684-5.525-5.966-5.525zM101.256 27.823a27.742 27.742 0 001.5-7.612l.26-2.582h5.334v10.149l-7.094.045zm13.364 0h-2.593V14.427H98.663a3.146 3.146 0 011.026 3.067l-.158 1.793a28.73 28.73 0 01-1.703 8.536h-1.725v5.175a1.872 1.872 0 002.075 2.087h.834l.61-4.06h11.13V33a1.876 1.876 0 001.241 1.994c.268.093.553.124.834.092h.835l.958-7.262zM125.458 32.3l7.161-17.873h-5.018c.643.507.609 1.759.158 2.909l-3.384 8.762-4.511-11.671h-4.06l6.496 16.181-.327.8c-.609 1.59-1.815 3.226-3.259 3.226a1.621 1.621 0 01-1.252-.452l.711 3.744c.319.107.656.15.992.124 3.226 0 4.985-2.458 6.293-5.75zM139.149 14.427h-4.06a3.143 3.143 0 011.207 3.1l-1.049 13.532h3.383l.925-12.032 4.703 8.74h2.255l4.635-8.954.733 12.246h3.745l-.993-16.599h-2.763a2.559 2.559 0 00-2.458 1.5l-3.812 7.138-4.026-7.172a2.517 2.517 0 00-2.425-1.5zM184.62 27.823h-2.56V14.427h-3.71v13.396h-5.538V14.427h-3.653v13.396h-5.515V14.427h-4.861c.925.507 1.128 1.759 1.128 3.1V28.94a1.876 1.876 0 001.241 1.994c.267.093.553.125.834.092h18.709V33a1.876 1.876 0 001.241 1.994c.268.093.553.124.835.092h.868l.981-7.262zM191.454 14.427h-4.86c.936.507 1.127 1.759 1.127 3.1V31.06h1.376a2.923 2.923 0 002.549-1.308l7.488-9.495v10.747h3.71V14.427h-1.375a2.923 2.923 0 00-2.527 1.251l-7.488 9.495V14.427zM220.968 31.15c.272.007.543-.035.8-.125l.801-3.586c-.25.205-.568.31-.891.294-1.443 0-3.011-.936-5.345-3.936l-1.467-1.883 6.553-7.488h-4.128l-6.067 6.766v-6.765h-4.849c.924.507 1.127 1.759 1.127 3.1V31.06h3.711v-7.893l2.548 3.383c2.346 2.943 4.241 4.6 7.207 4.6zM228.929 14.427h-4.86c.925.507 1.128 1.759 1.128 3.1V31.06h1.375a2.945 2.945 0 002.493-1.308l7.477-9.495v10.747h3.665V14.427h-1.376a2.946 2.946 0 00-2.526 1.251l-7.376 9.495V14.427z" fill="#000"/></symbol><symbol fill="none" viewBox="0 0 181 85" id="logo-2" xmlns="http://www.w3.org/2000/svg"><path d="M5.391 74.186v-6.24h4.291c1.95 0 3.649 1.024 3.649 3.126 0 2.101-1.7 3.114-3.649 3.114h-4.29zM.207 56c1.23.642 1.547 1.6 1.547 3.114V75.45a1.808 1.808 0 002.004 2.015h6.425c4.008 0 7.069-2.178 7.069-6.174a5.314 5.314 0 00-4.477-5.446 4.595 4.595 0 002.68-4.29c0-3.333-2.658-5.554-6.796-5.554H.207zm11.545 6.044c0 1.786-1.296 2.81-3.366 2.81H5.391v-5.609h2.995c2.07 0 3.366 1.013 3.366 2.799zM35.472 77.431h3.584v-16.03h-3.584v16.03zm-11.054-3.06V69.58h2.56a2.419 2.419 0 110 4.791h-2.56zm3.115-7.72h-3.115V61.4h-4.694c.893.49 1.089 1.7 1.089 2.995v11.02a1.806 1.806 0 002.004 2.015h4.694c3.213 0 5.783-1.916 5.783-5.445 0-3.528-2.592-5.336-5.761-5.336zM46.81 74.339a26.794 26.794 0 001.449-7.351l.25-2.494h5.152v9.801l-6.85.044zm12.906 0h-2.505V61.4H44.305a3.038 3.038 0 01.991 2.962l-.152 1.732a27.744 27.744 0 01-1.645 8.244h-1.666v4.998a1.809 1.809 0 002.004 2.015h.806l.588-3.92h10.75v1.905a1.809 1.809 0 002.003 2.015h.806l.926-7.013zM70.183 78.662l6.915-17.26h-4.846c.62.49.588 1.698.152 2.809l-3.267 8.461-4.356-11.27H60.86l6.273 15.626-.316.774c-.588 1.535-1.753 3.114-3.147 3.114a1.568 1.568 0 01-1.21-.435l.687 3.615c.308.103.634.144.958.12 3.115 0 4.814-2.374 6.078-5.554zM83.404 61.401h-3.92a3.039 3.039 0 011.165 2.995l-1.013 13.068h3.267l.893-11.62 4.542 8.44h2.178l4.477-8.647.708 11.827h3.615l-.958-16.03H95.69a2.473 2.473 0 00-2.375 1.448l-3.68 6.894-3.889-6.926a2.429 2.429 0 00-2.341-1.449zM127.318 74.339h-2.473V61.4h-3.583V74.34h-5.347V61.4h-3.529V74.34h-5.326V61.4h-4.694c.893.49 1.089 1.7 1.089 2.995v11.02a1.807 1.807 0 002.004 2.015h18.068v1.906a1.808 1.808 0 002.004 2.015h.839l.948-7.013zM133.918 61.401h-4.695c.904.49 1.09 1.699 1.09 2.995v13.068h1.328a2.82 2.82 0 002.462-1.263l7.231-9.17V77.41h3.584V61.401h-1.329a2.817 2.817 0 00-2.44 1.209l-7.231 9.17V61.4zM162.42 77.551c.263.007.525-.033.773-.12l.773-3.463a1.262 1.262 0 01-.86.283c-1.394 0-2.908-.903-5.162-3.8l-1.416-1.819 6.327-7.23h-3.986l-5.859 6.533v-6.534h-4.683c.893.49 1.089 1.7 1.089 2.995v13.068h3.583v-7.623l2.461 3.267c2.266 2.842 4.095 4.443 6.96 4.443zM170.109 61.402h-4.694c.893.49 1.089 1.698 1.089 2.994v13.068h1.329a2.846 2.846 0 002.407-1.263l7.22-9.17V77.41H181V61.402h-1.329a2.847 2.847 0 00-2.439 1.208l-7.123 9.17V61.402z" fill="#000"/><path d="M86.385 0H70.112c5.784.748 11.491 4.322 11.491 11.07 0 4.07-2.362 9.635-10.065 10.683l3.423.117c7.886.32 12.166 4.856 12.166 10.45 0 6.7-5.524 10.517-10.865 11.138H92.97c9.438 0 15.029-5.885 15.029-13.14 0-6.38-5.032-11.323-11.568-11.944a10.232 10.232 0 002.338-3.46c.534-1.304.795-2.705.766-4.115C99.554 4.856 94.82 0 86.384 0z" fill="#E90013"/></symbol><symbol fill="none" viewBox="0 0 21 21" id="phone-icon" xmlns="http://www.w3.org/2000/svg"><g clip-path="url(#dclip0_403_2)"><path d="M5.45 0H3.6C2.164 0 .98 1.164 1.089 2.595c.243 3.258 1.158 8.342 4.586 11.936 4.512 4.733 9.92 5.716 13.511 5.919 1.434.08 2.597-1.112 2.597-2.547V16.2c0-.706-.418-1.345-1.066-1.626l-3.207-1.393c-.78-.339-1.69-.149-2.27.475l-.86.924a.882.882 0 01-1.003.221c-1.054-.47-2.762-1.413-4.097-2.749a12.978 12.978 0 01-2.533-3.61c-.153-.335-.058-.72.208-.975l1.233-1.183c.646-.62.804-1.593.386-2.385L7.018.946A1.772 1.772 0 005.45 0z" fill="#fff"/></g><defs><clipPath id="dclip0_403_2"><path fill="#fff" d="M0 0h21v21H0z"/></clipPath></defs></symbol></svg>