<svg width="51" height="42" viewBox="0 0 51 42" fill="none" xmlns="http://www.w3.org/2000/svg">
<path d="M42.0342 1.94824L5.53999 10.1611C2.30109 10.8901 0 13.7665 0 17.0865V34.4109C0 38.3313 3.17811 41.5094 7.09851 41.5094H43.5927C47.5131 41.5094 50.6912 38.3313 50.6912 34.4109V8.87355C50.6912 4.32446 46.4723 0.949456 42.0342 1.94824Z" fill="url(#paint0_linear_102_91)"/>
<path d="M18.729 29.8988V28.0567H23.2395C23.8823 28.0567 24.4332 27.9476 24.8923 27.7296C25.3628 27.5 25.7244 27.1844 25.9769 26.7827C26.2294 26.3695 26.3556 25.8875 26.3556 25.3366C26.3556 24.7857 26.2294 24.3094 25.9769 23.9076C25.7244 23.5059 25.3628 23.1961 24.8923 22.978C24.4332 22.7484 23.8823 22.6337 23.2395 22.6337H18.7462V20.7916H23.3428C24.4217 20.7916 25.3571 20.9867 26.149 21.3769C26.941 21.7557 27.555 22.2836 27.9911 22.9608C28.4387 23.6379 28.6625 24.4299 28.6625 25.3366C28.6625 26.2433 28.4387 27.0409 27.9911 27.7296C27.555 28.4067 26.941 28.9404 26.149 29.3307C25.3571 29.7094 24.4217 29.8988 23.3428 29.8988H18.729ZM13.7364 29.8988C12.669 29.8988 11.7336 29.7094 10.9302 29.3307C10.1382 28.9404 9.51847 28.4067 9.07086 27.7296C8.63472 27.0409 8.41666 26.2433 8.41666 25.3366C8.41666 24.4299 8.63472 23.6379 9.07086 22.9608C9.51847 22.2836 10.1382 21.7557 10.9302 21.3769C11.7336 20.9867 12.669 20.7916 13.7364 20.7916H18.3158V22.6337H13.8224C13.1912 22.6337 12.6403 22.7484 12.1697 22.978C11.7106 23.1961 11.3548 23.5059 11.1023 23.9076C10.8498 24.3094 10.7236 24.7857 10.7236 25.3366C10.7236 25.8875 10.8498 26.3695 11.1023 26.7827C11.3548 27.1844 11.7106 27.5 12.1697 27.7296C12.6403 27.9476 13.1912 28.0567 13.8224 28.0567H18.333V29.8988H13.7364ZM17.4034 32.4467V18.915H19.6759V32.4467H17.4034Z" fill="white"/>
<path d="M31.8073 19.2249H41.2416V21.067H32.5476L33.4945 20.4645L32.7714 25.9047L32.1 25.9219C32.364 25.5202 32.7198 25.1415 33.1674 24.7857C33.6265 24.4299 34.1774 24.143 34.8201 23.9249C35.4743 23.6953 36.2088 23.5806 37.0237 23.5806C38.1485 23.5806 39.1011 23.7757 39.8816 24.1659C40.662 24.5447 41.2531 25.0611 41.6548 25.7153C42.068 26.3695 42.2746 27.1098 42.2746 27.9362C42.2746 28.797 42.0336 29.5602 41.5515 30.2259C41.0695 30.8916 40.3866 31.4195 39.5028 31.8098C38.6306 32.1885 37.5919 32.3779 36.3868 32.3779C35.1816 32.3779 34.1372 32.2 33.2535 31.8442C32.3697 31.4884 31.6696 31.0064 31.1531 30.3981C30.6481 29.7783 30.3382 29.0897 30.2235 28.3322H32.5132C32.6739 29.0093 33.087 29.543 33.7527 29.9332C34.4184 30.3235 35.2964 30.5186 36.3868 30.5186C37.1213 30.5186 37.7525 30.4153 38.2805 30.2087C38.8199 29.9906 39.2388 29.6922 39.5373 29.3135C39.8357 28.9232 39.9849 28.4641 39.9849 27.9362C39.9849 27.4197 39.8586 26.9721 39.6061 26.5934C39.3651 26.2031 38.9921 25.9047 38.4871 25.6981C37.9936 25.4801 37.3623 25.371 36.5933 25.371C35.9621 25.371 35.394 25.4456 34.889 25.5948C34.3954 25.744 33.965 25.9334 33.5978 26.163C33.242 26.3925 32.9436 26.6335 32.7026 26.886H30.8088L31.8073 19.2249Z" fill="white"/>
<defs>
<linearGradient id="paint0_linear_102_91" x1="-4.01704" y1="26.4933" x2="38.0425" y2="0.400425" gradientUnits="userSpaceOnUse">
<stop stop-color="#5A199B"/>
<stop offset="1" stop-color="#CB2668"/>
<stop offset="1" stop-color="#E11E55"/>
</linearGradient>
</defs>
</svg>
