<svg width="21" height="21" viewBox="0 0 21 21" fill="none" xmlns="http://www.w3.org/2000/svg">
<g clip-path="url(#clip0_403_2)">
<path d="M5.45036 0H3.59893C2.16355 0 0.981239 1.16356 1.08835 2.59494C1.33212 5.85258 2.2469 10.9366 5.67481 14.5315C10.1873 19.2638 15.5942 20.2468 19.1865 20.4497C20.6197 20.5307 21.7834 19.3381 21.7834 17.9027V16.2008C21.7834 15.495 21.3646 14.8565 20.7173 14.5753L17.5104 13.1825C16.7295 12.8433 15.8196 13.0333 15.2398 13.6567L14.3802 14.5808C14.122 14.8583 13.7228 14.9567 13.3767 14.8024C12.3227 14.3326 10.6153 13.389 9.27958 12.0533C7.98464 10.7583 7.15393 9.32938 6.74734 8.44267C6.59404 8.10836 6.6895 7.72246 6.95492 7.46787L8.18779 6.28532C8.83422 5.66528 8.99192 4.69213 8.57439 3.89968L7.01819 0.946074C6.71162 0.364222 6.10803 0 5.45036 0Z" fill="white"/>
</g>
<defs>
<clipPath id="clip0_403_2">
<rect width="21" height="21" fill="white"/>
</clipPath>
</defs>
</svg>
