<svg width="24" height="24" viewBox="0 0 24 24" fill="none" xmlns="http://www.w3.org/2000/svg">
<path d="M21.9994 16.9698V19.9798C22.0005 20.2592 21.9432 20.5358 21.831 20.7918C21.7188 21.0478 21.5542 21.2776 21.3478 21.4665C21.1415 21.6555 20.8978 21.7993 20.6325 21.8888C20.3672 21.9783 20.0861 22.0116 19.8072 21.9864C16.7128 21.6509 13.7404 20.5959 11.1289 18.9062C8.69921 17.3657 6.63926 15.3104 5.09534 12.8862C3.39586 10.2687 2.33824 7.28864 2.00816 4.18735C1.98303 3.9099 2.01608 3.63027 2.1052 3.36625C2.19432 3.10224 2.33757 2.85964 2.52581 2.65389C2.71405 2.44814 2.94317 2.28375 3.19858 2.17119C3.45398 2.05863 3.73008 2.00036 4.0093 2.0001H7.02608C7.5141 1.9953 7.98722 2.16773 8.35725 2.48524C8.72727 2.80275 8.96896 3.24367 9.03727 3.72582C9.1646 4.68909 9.40074 5.63488 9.74118 6.54518C9.87648 6.90429 9.90576 7.29458 9.82556 7.66979C9.74536 8.045 9.55903 8.38941 9.28867 8.6622L8.01156 9.93643C9.44308 12.4483 11.5276 14.5281 14.0451 15.9564L15.3222 14.6822C15.5956 14.4124 15.9408 14.2265 16.3169 14.1465C16.6929 14.0665 17.0841 14.0957 17.444 14.2307C18.3564 14.5704 19.3043 14.806 20.2698 14.933C20.7582 15.0018 21.2044 15.2473 21.5233 15.6228C21.8422 15.9983 22.0116 16.4777 21.9994 16.9698Z" stroke="#B4B4B4" stroke-width="2" stroke-linecap="round" stroke-linejoin="round"/>
</svg>
