<svg width="10" height="10" viewBox="0 0 10 10" fill="none" xmlns="http://www.w3.org/2000/svg">
<g clip-path="url(#clip0_78_200)">
<path d="M2.22204 5.3902L6.67216 9.84025C6.77509 9.94325 6.91249 10 7.05899 10C7.20549 10 7.34289 9.94325 7.44582 9.84025L7.77354 9.51261C7.98679 9.29911 7.98679 8.95212 7.77354 8.73895L4.03666 5.00207L7.77768 1.26105C7.88061 1.15804 7.93744 1.02072 7.93744 0.874302C7.93744 0.727717 7.88061 0.590401 7.77768 0.487312L7.44996 0.159754C7.34696 0.0567474 7.20964 -6.36262e-08 7.06314 -7.64339e-08C6.91663 -8.92416e-08 6.77924 0.0567473 6.67631 0.159754L2.22204 4.61386C2.11887 4.7172 2.0622 4.85516 2.06253 5.00183C2.0622 5.14906 2.11887 5.28695 2.22204 5.3902Z" fill="currentColor"/>
</g>
<defs>
<clipPath id="clip0_78_200">
<rect width="10" height="10" fill="white" transform="translate(10 10) rotate(-180)"/>
</clipPath>
</defs>
</svg>
